<svg enable-background="new 0 0 32 32" height="512" viewBox="0 0 32 32" width="512" xmlns="http://www.w3.org/2000/svg"><g id="BG"><path d="m26 32h-20c-3.314 0-6-2.686-6-6v-20c0-3.314 2.686-6 6-6h20c3.314 0 6 2.686 6 6v20c0 3.314-2.686 6-6 6z" fill="#fff9dd"/></g><g id="bold"><path d="m18.833 16.667h-1.167v2.833c0 .276-.224.5-.5.5h-2.333c-.276 0-.5-.224-.5-.5v-2.833h-1.167c-.643 0-1.167.523-1.167 1.167v5c.001.643.524 1.166 1.168 1.166h5.667c.643 0 1.166-.523 1.166-1.167v-5c0-.643-.523-1.166-1.167-1.166zm-.666 6h-1.333c-.276 0-.5-.224-.5-.5s.224-.5.5-.5h1.333c.276 0 .5.224.5.5s-.224.5-.5.5z" fill="#ffe777"/><g fill="#ffd200"><path d="m21.924 13.905c-.238-.144-.544-.065-.686.172l-1.355 2.258c.297.209.527.503.658.847l1.554-2.591c.143-.237.066-.544-.171-.686z"/><path d="m18.059 16 .722-1.443c.124-.247.023-.547-.224-.671-.247-.123-.547-.023-.671.224l-.945 1.89z"/><path d="m13.941 16h1.118l-.945-1.89c-.124-.246-.423-.348-.671-.224-.247.124-.348.424-.224.671z"/><path d="m12.123 16.329-1.362-2.254c-.143-.236-.451-.313-.686-.17-.236.143-.313.45-.169.687l1.557 2.577c.133-.341.363-.633.66-.84z"/><path d="m16 8c-3.492 0-6.333 2.766-6.333 6.167 0 .276.224.5.5.5h11.667c.276 0 .5-.224.5-.5-.001-3.401-2.842-6.167-6.334-6.167z"/></g></g></svg>